<?xml version="1.0" standalone="no"?>
<!DOCTYPE svg PUBLIC "-//W3C//DTD SVG 20010904//EN"
 "http://www.w3.org/TR/2001/REC-SVG-20010904/DTD/svg10.dtd">
<svg version="1.0" xmlns="http://www.w3.org/2000/svg"
 width="512.000000pt" height="512.000000pt" viewBox="0 0 512.000000 512.000000"
 preserveAspectRatio="xMidYMid meet">

<g transform="translate(0.000000,512.000000) scale(0.100000,-0.100000)"
fill="#000000" stroke="none">
<path d="M5077 3511 c5 -66 3 -82 -7 -76 -9 6 -11 -13 -9 -83 2 -50 1 -85 -3
-79 -4 7 -8 39 -9 72 -1 33 -4 50 -6 38 -2 -13 -8 -23 -13 -23 -5 0 -10 -35
-12 -77 -3 -91 -22 -105 -26 -20 -2 42 -7 57 -17 57 -11 0 -15 -13 -15 -50 0
-43 -3 -50 -20 -50 -11 0 -20 -4 -20 -10 0 -5 14 -10 30 -10 23 0 30 -4 30
-20 0 -11 -4 -20 -10 -20 -5 0 -10 -9 -10 -20 0 -15 -7 -20 -26 -20 -33 0 -54
-21 -54 -54 0 -19 -5 -26 -20 -26 -12 0 -20 -7 -20 -16 0 -9 -9 -18 -20 -21
-11 -3 -20 -14 -20 -24 0 -14 -7 -19 -26 -19 -33 0 -54 -21 -54 -54 0 -19 -5
-26 -19 -26 -10 0 -21 -9 -24 -20 -3 -11 -12 -20 -21 -20 -9 0 -16 -8 -16 -20
0 -15 -7 -20 -26 -20 -33 0 -54 -21 -54 -54 0 -19 -5 -26 -19 -26 -10 0 -21
-9 -24 -20 -3 -11 -12 -20 -21 -20 -9 0 -16 -8 -16 -20 0 -15 -7 -20 -26 -20
-33 0 -54 -21 -54 -54 0 -24 -4 -26 -40 -26 -22 0 -40 5 -40 10 0 6 -9 10 -20
10 -11 0 -20 -4 -20 -10 0 -5 9 -10 20 -10 13 0 20 -7 20 -20 0 -11 -7 -20
-15 -20 -9 0 -19 -8 -22 -17 -9 -23 -43 -57 -66 -66 -9 -3 -17 -13 -17 -22 0
-8 -9 -15 -20 -15 -11 0 -20 5 -20 10 0 6 -9 10 -20 10 -11 0 -20 -4 -20 -10
0 -5 9 -10 20 -10 13 0 20 -7 20 -20 0 -11 -7 -20 -15 -20 -9 0 -19 -8 -22
-17 -9 -23 -43 -57 -66 -66 -9 -3 -17 -13 -17 -22 0 -29 -25 -15 -36 20 -6 19
-8 35 -4 35 11 0 21 43 11 50 -4 3 -10 13 -14 23 -3 9 -12 17 -19 17 -10 0
-10 -2 -1 -8 7 -5 15 -22 17 -40 3 -28 1 -30 -16 -21 -18 10 -18 9 -8 -11 8
-14 11 -79 11 -188 -2 -219 12 -205 -209 -214 -92 -4 -186 -7 -209 -7 -39 0
-43 -2 -43 -26 0 -15 -6 -25 -14 -25 -8 0 -17 -4 -20 -8 -3 -5 15 -9 40 -10
49 0 66 -8 46 -21 -7 -4 -12 -14 -10 -21 2 -7 -3 -15 -9 -17 -7 -3 -13 0 -13
6 0 6 -5 11 -10 11 -6 0 -9 -6 -8 -12 2 -8 -6 -12 -19 -10 -13 2 -23 -2 -23
-7 0 -6 7 -11 15 -11 8 0 15 -9 15 -19 0 -10 -7 -21 -15 -25 -8 -3 -15 -10
-15 -16 0 -14 -40 -54 -63 -63 -9 -3 -17 -13 -17 -22 0 -8 -9 -15 -20 -15 -11
0 -20 5 -20 10 0 6 -9 10 -20 10 -11 0 -20 -4 -20 -10 0 -5 9 -10 20 -10 13 0
20 -7 20 -20 0 -11 -7 -20 -15 -20 -9 0 -19 -8 -22 -17 -9 -23 -43 -57 -66
-66 -9 -3 -17 -13 -17 -22 0 -8 -9 -15 -20 -15 -11 0 -20 5 -20 10 0 6 -9 10
-20 10 -11 0 -20 -4 -20 -10 0 -5 9 -10 20 -10 13 0 20 -7 20 -20 0 -11 -7
-20 -15 -20 -9 0 -19 -8 -22 -17 -9 -23 -43 -57 -66 -66 -9 -3 -17 -14 -17
-22 0 -10 -7 -15 -17 -13 -13 2 -19 15 -21 46 -7 89 -28 30 -23 -63 1 -16 -1
-15 -10 5 -6 14 -14 93 -18 175 -6 120 -8 69 -9 -257 l-2 -408 -22 -14 c-26
-16 -43 -19 -110 -17 -75 2 -88 21 -88 132 0 57 -4 88 -10 84 -6 -4 -10 16
-10 54 0 33 -4 63 -10 66 -6 4 -10 -25 -10 -79 0 -71 -3 -86 -15 -86 -9 0 -19
-8 -22 -17 -9 -23 -43 -57 -66 -66 -9 -3 -17 -13 -17 -22 0 -8 -9 -15 -20 -15
-11 0 -20 5 -20 10 0 6 -9 10 -20 10 -11 0 -20 -4 -20 -10 0 -5 9 -10 20 -10
17 0 20 -7 20 -40 0 -36 -2 -40 -26 -40 -33 0 -54 -21 -54 -54 0 -19 -5 -26
-19 -26 -10 0 -21 -9 -24 -20 -3 -11 -12 -20 -21 -20 -9 0 -16 -8 -16 -20 0
-15 -7 -20 -26 -20 -33 0 -54 -21 -54 -54 0 -19 -5 -26 -19 -26 -10 0 -21 -9
-24 -20 -3 -11 -12 -20 -21 -20 -9 0 -16 -8 -16 -20 0 -15 -7 -20 -26 -20 -33
0 -54 -21 -54 -54 0 -19 -5 -26 -19 -26 -10 0 -21 -9 -24 -20 -3 -11 -12 -20
-21 -20 -9 0 -16 -8 -16 -20 0 -15 -7 -20 -26 -20 -33 0 -54 -21 -54 -54 0
-19 -5 -26 -19 -26 -10 0 -21 -9 -24 -20 -3 -11 -12 -20 -21 -20 -9 0 -16 -8
-16 -20 0 -15 -7 -20 -26 -20 -33 0 -54 -21 -54 -54 l0 -26 1358 3 c1513 3
1414 -2 1569 73 100 48 214 159 265 259 64 124 69 158 75 470 6 416 -15 2692
-26 2745 -8 37 -8 29 -4 -39z m10 -213 c-2 -13 -4 -3 -4 22 0 25 2 35 4 23 2
-13 2 -33 0 -45z m-1507 -1408 c0 -5 -4 -10 -10 -10 -5 0 -10 5 -10 10 0 6 5
10 10 10 6 0 10 -4 10 -10z m100 -6 c0 -2 -13 -4 -30 -4 -16 0 -30 4 -30 8 0
5 14 7 30 4 17 -2 30 -6 30 -8z m-35 -24 c-3 -5 -13 -10 -21 -10 -8 0 -14 -5
-14 -11 0 -5 -5 -7 -11 -3 -13 8 -1 20 26 27 11 3 21 5 23 6 2 0 0 -3 -3 -9z
m-20 -58 c-3 -3 -11 0 -18 7 -9 10 -8 11 6 5 10 -3 15 -9 12 -12z m148 -53
c19 -23 19 -40 15 -498 -6 -548 5 -501 -114 -501 -64 0 -75 3 -88 22 -14 20
-16 83 -16 493 0 307 -4 465 -10 455 -8 -13 -10 -13 -10 1 0 9 8 23 17 30 14
12 16 12 8 -1 -5 -8 4 -4 20 9 26 20 38 22 94 18 53 -4 68 -9 84 -28z m-213
17 c0 -3 -4 -8 -10 -11 -5 -3 -10 -1 -10 4 0 6 5 11 10 11 6 0 10 -2 10 -4z
m-553 -558 c-3 -7 -5 -2 -5 12 0 14 2 19 5 13 2 -7 2 -19 0 -25z"/>
<path d="M5003 3250 c0 -25 2 -35 4 -22 2 12 2 32 0 45 -2 12 -4 2 -4 -23z"/>
<path d="M4840 3190 c0 -5 5 -10 10 -10 6 0 10 5 10 10 0 6 -4 10 -10 10 -5 0
-10 -4 -10 -10z"/>
<path d="M4800 3150 c0 -5 5 -10 10 -10 6 0 10 5 10 10 0 6 -4 10 -10 10 -5 0
-10 -4 -10 -10z"/>
<path d="M4760 3050 c0 -5 9 -10 20 -10 11 0 20 5 20 10 0 6 -9 10 -20 10 -11
0 -20 -4 -20 -10z"/>
<path d="M4680 3030 c0 -5 5 -10 10 -10 6 0 10 5 10 10 0 6 -4 10 -10 10 -5 0
-10 -4 -10 -10z"/>
<path d="M4640 2990 c0 -5 5 -10 10 -10 6 0 10 5 10 10 0 6 -4 10 -10 10 -5 0
-10 -4 -10 -10z"/>
<path d="M4600 2890 c0 -5 9 -10 20 -10 11 0 20 5 20 10 0 6 -9 10 -20 10 -11
0 -20 -4 -20 -10z"/>
<path d="M4520 2870 c0 -5 5 -10 10 -10 6 0 10 5 10 10 0 6 -4 10 -10 10 -5 0
-10 -4 -10 -10z"/>
<path d="M4480 2830 c0 -5 5 -10 10 -10 6 0 10 5 10 10 0 6 -4 10 -10 10 -5 0
-10 -4 -10 -10z"/>
<path d="M4440 2730 c0 -5 9 -10 20 -10 11 0 20 5 20 10 0 6 -9 10 -20 10 -11
0 -20 -4 -20 -10z"/>
<path d="M4360 2710 c0 -5 5 -10 10 -10 6 0 10 5 10 10 0 6 -4 10 -10 10 -5 0
-10 -4 -10 -10z"/>
<path d="M4320 2670 c0 -5 5 -10 10 -10 6 0 10 5 10 10 0 6 -4 10 -10 10 -5 0
-10 -4 -10 -10z"/>
<path d="M4200 2550 c0 -5 5 -10 10 -10 6 0 10 5 10 10 0 6 -4 10 -10 10 -5 0
-10 -4 -10 -10z"/>
<path d="M4160 2510 c0 -5 5 -10 10 -10 6 0 10 5 10 10 0 6 -4 10 -10 10 -5 0
-10 -4 -10 -10z"/>
<path d="M3928 2393 c7 -3 16 -2 19 1 4 3 -2 6 -13 5 -11 0 -14 -3 -6 -6z"/>
<path d="M4040 2390 c0 -5 5 -10 10 -10 6 0 10 5 10 10 0 6 -4 10 -10 10 -5 0
-10 -4 -10 -10z"/>
<path d="M3923 2366 c0 -6 13 -11 29 -12 35 -1 35 1 0 14 -21 7 -29 7 -29 -2z"/>
<path d="M3440 1910 c0 -5 6 -10 14 -10 8 0 18 5 21 10 3 6 -3 10 -14 10 -12
0 -21 -4 -21 -10z"/>
<path d="M3400 1750 c0 -5 5 -10 10 -10 6 0 10 5 10 10 0 6 -4 10 -10 10 -5 0
-10 -4 -10 -10z"/>
<path d="M3360 1710 c0 -5 5 -10 10 -10 6 0 10 5 10 10 0 6 -4 10 -10 10 -5 0
-10 -4 -10 -10z"/>
<path d="M3240 1590 c0 -5 5 -10 10 -10 6 0 10 5 10 10 0 6 -4 10 -10 10 -5 0
-10 -4 -10 -10z"/>
<path d="M3200 1550 c0 -5 5 -10 10 -10 6 0 10 5 10 10 0 6 -4 10 -10 10 -5 0
-10 -4 -10 -10z"/>
<path d="M3080 1430 c0 -5 5 -10 10 -10 6 0 10 5 10 10 0 6 -4 10 -10 10 -5 0
-10 -4 -10 -10z"/>
<path d="M3040 1390 c0 -5 5 -10 10 -10 6 0 10 5 10 10 0 6 -4 10 -10 10 -5 0
-10 -4 -10 -10z"/>
<path d="M2680 970 c0 -5 7 -10 15 -10 8 0 15 5 15 10 0 6 -7 10 -15 10 -8 0
-15 -4 -15 -10z"/>
<path d="M2600 950 c0 -5 5 -10 10 -10 6 0 10 5 10 10 0 6 -4 10 -10 10 -5 0
-10 -4 -10 -10z"/>
<path d="M2560 910 c0 -5 5 -10 10 -10 6 0 10 5 10 10 0 6 -4 10 -10 10 -5 0
-10 -4 -10 -10z"/>
<path d="M2440 790 c0 -5 5 -10 10 -10 6 0 10 5 10 10 0 6 -4 10 -10 10 -5 0
-10 -4 -10 -10z"/>
<path d="M2400 750 c0 -5 5 -10 10 -10 6 0 10 5 10 10 0 6 -4 10 -10 10 -5 0
-10 -4 -10 -10z"/>
<path d="M2360 650 c0 -5 9 -10 20 -10 11 0 20 5 20 10 0 6 -9 10 -20 10 -11
0 -20 -4 -20 -10z"/>
<path d="M2280 630 c0 -5 5 -10 10 -10 6 0 10 5 10 10 0 6 -4 10 -10 10 -5 0
-10 -4 -10 -10z"/>
<path d="M2240 590 c0 -5 5 -10 10 -10 6 0 10 5 10 10 0 6 -4 10 -10 10 -5 0
-10 -4 -10 -10z"/>
<path d="M2200 490 c0 -5 9 -10 20 -10 11 0 20 5 20 10 0 6 -9 10 -20 10 -11
0 -20 -4 -20 -10z"/>
<path d="M2120 470 c0 -5 5 -10 10 -10 6 0 10 5 10 10 0 6 -4 10 -10 10 -5 0
-10 -4 -10 -10z"/>
<path d="M2080 430 c0 -5 5 -10 10 -10 6 0 10 5 10 10 0 6 -4 10 -10 10 -5 0
-10 -4 -10 -10z"/>
<path d="M2040 330 c0 -5 9 -10 20 -10 11 0 20 5 20 10 0 6 -9 10 -20 10 -11
0 -20 -4 -20 -10z"/>
<path d="M1960 310 c0 -5 5 -10 10 -10 6 0 10 5 10 10 0 6 -4 10 -10 10 -5 0
-10 -4 -10 -10z"/>
<path d="M1920 270 c0 -5 5 -10 10 -10 6 0 10 5 10 10 0 6 -4 10 -10 10 -5 0
-10 -4 -10 -10z"/>
<path d="M1880 170 c0 -5 9 -10 20 -10 11 0 20 5 20 10 0 6 -9 10 -20 10 -11
0 -20 -4 -20 -10z"/>
<path d="M1800 150 c0 -5 5 -10 10 -10 6 0 10 5 10 10 0 6 -4 10 -10 10 -5 0
-10 -4 -10 -10z"/>
<path d="M1760 110 c0 -5 5 -10 10 -10 6 0 10 5 10 10 0 6 -4 10 -10 10 -5 0
-10 -4 -10 -10z"/>
<path d="M1720 10 c0 -5 9 -10 20 -10 11 0 20 5 20 10 0 6 -9 10 -20 10 -11 0
-20 -4 -20 -10z"/>
</g>
</svg>
