<?xml version="1.0" encoding="UTF-8"?>
<!DOCTYPE svg PUBLIC "-//W3C//DTD SVG 1.1//EN" "http://www.w3.org/Graphics/SVG/1.1/DTD/svg11.dtd">
<svg xmlns="http://www.w3.org/2000/svg" version="1.1" width="474px" height="474px" style="shape-rendering:geometricPrecision; text-rendering:geometricPrecision; image-rendering:optimizeQuality; fill-rule:evenodd; clip-rule:evenodd" xmlns:xlink="http://www.w3.org/1999/xlink">
<g><path style="opacity:1" fill="#fcfbfa" d="M -0.5,-0.5 C 31.5,-0.5 63.5,-0.5 95.5,-0.5C 88.4917,3.00488 81.1584,5.67155 73.5,7.5C 67.8801,9.64326 62.5468,12.3099 57.5,15.5C 53.3906,16.8744 50.0573,19.2078 47.5,22.5C 45.7697,23.0256 44.4363,24.0256 43.5,25.5C 40.5726,26.7573 38.2393,28.7573 36.5,31.5C 33.7361,31.9988 32.0695,33.6655 31.5,36.5C 28.4275,38.5691 26.0941,41.2358 24.5,44.5C 23.5116,45.795 22.5116,47.1283 21.5,48.5C 17.3151,52.708 14.3151,57.708 12.5,63.5C 7.0298,71.8996 3.69647,81.233 2.5,91.5C 1.85048,93.4352 1.51715,95.4352 1.5,97.5C 0.833333,97.5 0.166667,97.5 -0.5,97.5C -0.5,64.8333 -0.5,32.1667 -0.5,-0.5 Z"/></g>
<g><path style="opacity:1" fill="#d6000f" d="M 104.5,-0.5 C 192.167,-0.5 279.833,-0.5 367.5,-0.5C 367.423,0.749754 366.756,1.58309 365.5,2C 375.714,3.05475 385.714,5.05475 395.5,8C 401.387,10.7771 407.387,13.2771 413.5,15.5C 414.492,15.3284 415.158,15.6618 415.5,16.5C 418.576,19.5508 422.242,21.8841 426.5,23.5C 428.795,24.1355 430.461,25.4689 431.5,27.5C 432.539,29.5311 434.205,30.8645 436.5,31.5C 436.5,32.8333 436.5,34.1667 436.5,35.5C 437.552,35.3505 438.552,35.5172 439.5,36C 441.853,38.9167 444.52,41.4167 447.5,43.5C 447.5,43.8333 447.5,44.1667 447.5,44.5C 448.534,47.9072 450.534,50.5739 453.5,52.5C 454.238,56.6429 456.071,60.3096 459,63.5C 459.488,66.8549 460.988,69.5216 463.5,71.5C 464.448,80.2247 465.448,89.558 466.5,99.5C 467.833,99.5 469.167,99.5 470.5,99.5C 470.5,101.833 470.5,104.167 470.5,106.5C 469.68,194.816 469.18,283.149 469,371.5C 468.358,375.491 467.858,379.491 467.5,383.5C 467.5,385.167 467.5,386.833 467.5,388.5C 467.5,388.833 467.5,389.167 467.5,389.5C 466.249,391.382 465.082,393.382 464,395.5C 463.51,396.793 463.343,398.127 463.5,399.5C 463.5,400.5 463.5,401.5 463.5,402.5C 462.5,402.5 461.5,402.5 460.5,402.5C 459.423,406.967 458.09,411.301 456.5,415.5C 453.482,417.818 451.149,420.818 449.5,424.5C 447.293,425.635 444.96,426.301 442.5,426.5C 442.808,428.924 442.474,431.257 441.5,433.5C 440.522,433.023 439.689,432.357 439,431.5C 438.505,433.473 438.338,435.473 438.5,437.5C 437.167,437.5 435.833,437.5 434.5,437.5C 434.5,439.167 434.5,440.833 434.5,442.5C 429.342,441.331 426.342,443.331 425.5,448.5C 423.556,449.189 421.556,449.689 419.5,450C 419.957,450.414 420.291,450.914 420.5,451.5C 418.43,452.903 416.763,454.57 415.5,456.5C 411.237,457.953 406.904,459.453 402.5,461C 401.748,461.671 401.414,462.504 401.5,463.5C 400.508,463.328 399.842,463.662 399.5,464.5C 388.56,465.268 377.894,467.268 367.5,470.5C 280.833,470.5 194.167,470.5 107.5,470.5C 104.813,470.664 102.146,470.497 99.5,470C 98.2298,469.1 97.2298,467.934 96.5,466.5C 95.7836,467.311 94.9503,467.978 94,468.5C 90.0289,467.578 86.1955,466.412 82.5,465C 83.1667,464.667 83.8333,464.333 84.5,464C 80.1794,463.501 75.8461,463.334 71.5,463.5C 71.1667,463.5 70.8333,463.5 70.5,463.5C 70.4894,461.983 69.8228,460.816 68.5,460C 65.5219,459.304 62.5219,458.804 59.5,458.5C 59.5,458.167 59.5,457.833 59.5,457.5C 59.5858,456.504 59.2524,455.671 58.5,455C 53.9808,452.24 49.3141,449.74 44.5,447.5C 35.9219,442.255 28.9219,435.255 23.5,426.5C 21.8921,423.2 20.2255,419.867 18.5,416.5C 18.0431,415.702 17.3764,415.369 16.5,415.5C 15.6618,415.158 15.3284,414.492 15.5,413.5C 11.6228,403.424 7.62277,393.424 3.5,383.5C 3.16667,383.5 2.83333,383.5 2.5,383.5C 2.67474,381.379 2.34141,379.379 1.5,377.5C 1.84316,375.517 1.17649,374.183 -0.5,373.5C -0.5,283.5 -0.5,193.5 -0.5,103.5C 1.27983,102.01 1.94649,100.01 1.5,97.5C 1.51715,95.4352 1.85048,93.4352 2.5,91.5C 5.20716,87.3785 6.70716,82.7118 7,77.5C 7.41395,77.0426 7.91395,76.7093 8.5,76.5C 9.10267,71.8084 10.436,67.4751 12.5,63.5C 13.5,63.5 14.5,63.5 15.5,63.5C 17.3363,58.5456 19.3363,53.5456 21.5,48.5C 22.5116,47.1283 23.5116,45.795 24.5,44.5C 27.6192,42.39 29.9525,39.7234 31.5,36.5C 34.8333,36.5 36.5,34.8333 36.5,31.5C 39.3866,30.2901 41.72,28.2901 43.5,25.5C 44.4363,24.0256 45.7697,23.0256 47.5,22.5C 51.9399,21.7238 55.2732,19.3904 57.5,15.5C 59.604,15.7989 61.604,15.4656 63.5,14.5C 67.4347,12.8735 70.768,10.5402 73.5,7.5C 77.1629,7.04822 80.8296,6.54822 84.5,6C 90.5565,3.32141 96.8899,1.65475 103.5,1C 104.056,0.617425 104.389,0.117425 104.5,-0.5 Z"/></g>
<g><path style="opacity:1" fill="#fcfafa" d="M 376.5,-0.5 C 408.833,-0.5 441.167,-0.5 473.5,-0.5C 473.5,32.5 473.5,65.5 473.5,98.5C 472.833,98.5 472.167,98.5 471.5,98.5C 471.007,96.1944 470.674,93.861 470.5,91.5C 470.277,87.8379 469.277,84.5046 467.5,81.5C 466.46,77.9581 465.126,74.6248 463.5,71.5C 462.004,64.1747 458.671,57.8413 453.5,52.5C 452.458,49.0699 450.458,46.4033 447.5,44.5C 447.5,44.1667 447.5,43.8333 447.5,43.5C 444.564,38.8947 440.898,34.8947 436.5,31.5C 435.421,29.457 433.754,28.1237 431.5,27.5C 430.461,25.4689 428.795,24.1355 426.5,23.5C 423.35,20.4208 419.683,18.0875 415.5,16.5C 415.158,15.6618 414.492,15.3284 413.5,15.5C 410.548,13.2826 407.382,11.2826 404,9.5C 400.354,8.45295 396.854,7.11961 393.5,5.5C 390.495,3.7234 387.162,2.7234 383.5,2.5C 380.841,2.08262 378.508,1.08262 376.5,-0.5 Z"/></g>
<g><path style="opacity:1" fill="#f08a94" d="M 372.5,-0.5 C 373.833,-0.5 375.167,-0.5 376.5,-0.5C 378.508,1.08262 380.841,2.08262 383.5,2.5C 380.813,2.66409 378.146,2.49742 375.5,2C 373.881,1.76445 372.881,0.931117 372.5,-0.5 Z"/></g>
<g><path style="opacity:1" fill="#b81d20" d="M 367.5,-0.5 C 369.167,-0.5 370.833,-0.5 372.5,-0.5C 372.881,0.931117 373.881,1.76445 375.5,2C 378.146,2.49742 380.813,2.66409 383.5,2.5C 386.505,4.2766 389.838,5.2766 393.5,5.5C 396.854,7.11961 400.354,8.45295 404,9.5C 407.382,11.2826 410.548,13.2826 413.5,15.5C 407.387,13.2771 401.387,10.7771 395.5,8C 385.714,5.05475 375.714,3.05475 365.5,2C 366.756,1.58309 367.423,0.749754 367.5,-0.5 Z"/></g>
<g><path style="opacity:1" fill="#df9993" d="M 383.5,2.5 C 387.162,2.7234 390.495,3.7234 393.5,5.5C 389.838,5.2766 386.505,4.2766 383.5,2.5 Z"/></g>
<g><path style="opacity:1" fill="#bf413f" d="M 95.5,-0.5 C 98.5,-0.5 101.5,-0.5 104.5,-0.5C 104.389,0.117425 104.056,0.617425 103.5,1C 96.8899,1.65475 90.5565,3.32141 84.5,6C 80.8296,6.54822 77.1629,7.04822 73.5,7.5C 81.1584,5.67155 88.4917,3.00488 95.5,-0.5 Z"/></g>
<g><path style="opacity:1" fill="#a93231" d="M 73.5,7.5 C 70.768,10.5402 67.4347,12.8735 63.5,14.5C 61.604,15.4656 59.604,15.7989 57.5,15.5C 62.5468,12.3099 67.8801,9.64326 73.5,7.5 Z"/></g>
<g><path style="opacity:1" fill="#a92424" d="M 415.5,16.5 C 419.683,18.0875 423.35,20.4208 426.5,23.5C 422.242,21.8841 418.576,19.5508 415.5,16.5 Z"/></g>
<g><path style="opacity:1" fill="#b7332a" d="M 57.5,15.5 C 55.2732,19.3904 51.9399,21.7238 47.5,22.5C 50.0573,19.2078 53.3906,16.8744 57.5,15.5 Z"/></g>
<g><path style="opacity:1" fill="#b0383d" d="M 431.5,27.5 C 433.754,28.1237 435.421,29.457 436.5,31.5C 434.205,30.8645 432.539,29.5311 431.5,27.5 Z"/></g>
<g><path style="opacity:1" fill="#a63331" d="M 43.5,25.5 C 41.72,28.2901 39.3866,30.2901 36.5,31.5C 38.2393,28.7573 40.5726,26.7573 43.5,25.5 Z"/></g>
<g><path style="opacity:1" fill="#b13a42" d="M 36.5,31.5 C 36.5,34.8333 34.8333,36.5 31.5,36.5C 32.0695,33.6655 33.7361,31.9988 36.5,31.5 Z"/></g>
<g><path style="opacity:1" fill="#c43d3f" d="M 436.5,31.5 C 440.898,34.8947 444.564,38.8947 447.5,43.5C 444.52,41.4167 441.853,38.9167 439.5,36C 438.552,35.5172 437.552,35.3505 436.5,35.5C 436.5,34.1667 436.5,32.8333 436.5,31.5 Z"/></g>
<g><path style="opacity:1" fill="#b03b3a" d="M 31.5,36.5 C 29.9525,39.7234 27.6192,42.39 24.5,44.5C 26.0941,41.2358 28.4275,38.5691 31.5,36.5 Z"/></g>
<g><path style="opacity:1" fill="#ad2a2d" d="M 447.5,44.5 C 450.458,46.4033 452.458,49.0699 453.5,52.5C 450.534,50.5739 448.534,47.9072 447.5,44.5 Z"/></g>
<g><path style="opacity:1" fill="#bc2f32" d="M 453.5,52.5 C 458.671,57.8413 462.004,64.1747 463.5,71.5C 460.988,69.5216 459.488,66.8549 459,63.5C 456.071,60.3096 454.238,56.6429 453.5,52.5 Z"/></g>
<g><path style="opacity:1" fill="#b12b2a" d="M 21.5,48.5 C 19.3363,53.5456 17.3363,58.5456 15.5,63.5C 14.5,63.5 13.5,63.5 12.5,63.5C 14.3151,57.708 17.3151,52.708 21.5,48.5 Z"/></g>
<g><path style="opacity:1" fill="#b5332f" d="M 12.5,63.5 C 10.436,67.4751 9.10267,71.8084 8.5,76.5C 7.91395,76.7093 7.41395,77.0426 7,77.5C 6.70716,82.7118 5.20716,87.3785 2.5,91.5C 3.69647,81.233 7.0298,71.8996 12.5,63.5 Z"/></g>
<g><path style="opacity:1" fill="#cc5b60" d="M 467.5,81.5 C 469.277,84.5046 470.277,87.8379 470.5,91.5C 468.723,88.4954 467.723,85.1621 467.5,81.5 Z"/></g>
<g><path style="opacity:1" fill="#c8515d" d="M -0.5,97.5 C 0.166667,97.5 0.833333,97.5 1.5,97.5C 1.94649,100.01 1.27983,102.01 -0.5,103.5C -0.5,101.5 -0.5,99.5 -0.5,97.5 Z"/></g>
<g><path style="opacity:1" fill="#d67466" d="M 471.5,98.5 C 472.167,98.5 472.833,98.5 473.5,98.5C 473.5,101.167 473.5,103.833 473.5,106.5C 472.883,106.389 472.383,106.056 472,105.5C 471.503,103.19 471.337,100.857 471.5,98.5 Z"/></g>
<g><path style="opacity:1" fill="#cf0312" d="M 470.5,106.5 C 471.666,191.666 471.832,276.999 471,362.5C 470.876,369.81 469.709,376.81 467.5,383.5C 467.858,379.491 468.358,375.491 469,371.5C 469.18,283.149 469.68,194.816 470.5,106.5 Z"/></g>
<g><path style="opacity:1" fill="#c6131c" d="M 463.5,71.5 C 465.126,74.6248 466.46,77.9581 467.5,81.5C 467.723,85.1621 468.723,88.4954 470.5,91.5C 470.674,93.861 471.007,96.1944 471.5,98.5C 471.337,100.857 471.503,103.19 472,105.5C 472.383,106.056 472.883,106.389 473.5,106.5C 473.5,193.5 473.5,280.5 473.5,367.5C 471.824,368.183 471.157,369.517 471.5,371.5C 470.704,376.147 470.037,380.814 469.5,385.5C 468.833,386.5 468.167,387.5 467.5,388.5C 467.5,386.833 467.5,385.167 467.5,383.5C 469.709,376.81 470.876,369.81 471,362.5C 471.832,276.999 471.666,191.666 470.5,106.5C 470.5,104.167 470.5,101.833 470.5,99.5C 469.167,99.5 467.833,99.5 466.5,99.5C 465.448,89.558 464.448,80.2247 463.5,71.5 Z"/></g>
<g><path style="opacity:1" fill="#bc3b41" d="M 319.5,133.5 C 320.833,133.5 322.167,133.5 323.5,133.5C 323.392,135.514 324.058,137.18 325.5,138.5C 323.223,137.551 321.223,136.218 319.5,134.5C 319.5,134.167 319.5,133.833 319.5,133.5 Z"/></g>
<g><path style="opacity:1" fill="#be1a18" d="M 241.5,135.5 C 240.167,135.167 238.833,134.833 237.5,134.5C 236.577,133.697 235.577,133.53 234.5,134C 230.282,136.282 226.616,139.282 223.5,143C 222.552,143.483 221.552,143.649 220.5,143.5C 220.741,139.917 222.408,138.251 225.5,138.5C 223.521,136.736 223.188,134.736 224.5,132.5C 225.429,133.689 225.762,135.022 225.5,136.5C 228.804,136.7 231.304,135.366 233,132.5C 235.98,130.753 239.147,130.253 242.5,131C 240.452,132.226 240.119,133.726 241.5,135.5 Z"/></g>
<g><path style="opacity:1" fill="#bb1e23" d="M 325.5,138.5 C 327.833,138.5 330.167,138.5 332.5,138.5C 333.063,141.374 334.063,144.04 335.5,146.5C 331.561,144.715 328.228,142.048 325.5,138.5 Z"/></g>
<g><path style="opacity:1" fill="#fcfbfb" d="M 154.5,133.5 C 155.499,187.997 155.832,242.664 155.5,297.5C 156.791,297.737 157.791,297.404 158.5,296.5C 161.167,293.5 163.833,290.5 166.5,287.5C 168.404,287.262 169.738,286.262 170.5,284.5C 173.192,282.138 175.859,279.804 178.5,277.5C 180.833,275.833 182.833,273.833 184.5,271.5C 184.833,271.5 185.167,271.5 185.5,271.5C 188.586,270.284 191.586,268.784 194.5,267C 196.666,265.322 197.999,263.155 198.5,260.5C 199.833,258.833 201.167,257.167 202.5,255.5C 204.5,254.167 206.167,252.5 207.5,250.5C 210.089,249.581 212.089,247.914 213.5,245.5C 220.295,239.875 226.962,234.042 233.5,228C 234.448,227.517 235.448,227.351 236.5,227.5C 237.326,229.264 238.659,230.598 240.5,231.5C 242.239,234.243 244.573,236.243 247.5,237.5C 247.833,238.5 248.5,239.167 249.5,239.5C 250.585,241.587 252.251,242.92 254.5,243.5C 256.895,246.861 259.895,249.528 263.5,251.5C 265.751,254.295 268.418,256.628 271.5,258.5C 272.585,260.587 274.251,261.92 276.5,262.5C 279.211,266.212 282.544,269.212 286.5,271.5C 287.865,273.86 289.865,275.527 292.5,276.5C 294.569,279.573 297.236,281.906 300.5,283.5C 302.824,286.313 305.49,288.646 308.5,290.5C 309.911,292.914 311.911,294.581 314.5,295.5C 315.585,297.587 317.251,298.92 319.5,299.5C 319.511,301.017 320.177,302.184 321.5,303C 323.405,304.421 325.405,305.588 327.5,306.5C 329.833,309.5 332.5,312.167 335.5,314.5C 342.193,320.707 349.193,326.707 356.5,332.5C 356.5,339.5 356.5,346.5 356.5,353.5C 343.833,353.5 331.167,353.5 318.5,353.5C 315.5,350.833 312.5,348.167 309.5,345.5C 295.104,333.096 281.104,320.429 267.5,307.5C 260.554,300.368 253.221,293.702 245.5,287.5C 242.161,284.494 238.828,281.494 235.5,278.5C 233.739,279.035 232.406,280.035 231.5,281.5C 229.167,283.167 227.167,285.167 225.5,287.5C 224.167,287.5 223.5,288.167 223.5,289.5C 220.811,290.189 219.144,291.856 218.5,294.5C 214.564,296.766 211.231,299.766 208.5,303.5C 207.833,303.5 207.5,303.833 207.5,304.5C 202.726,308.098 198.06,311.931 193.5,316C 192.177,316.816 191.511,317.983 191.5,319.5C 187.728,322.094 184.061,324.927 180.5,328C 178.21,329.777 176.543,331.944 175.5,334.5C 172.94,335.385 170.94,337.051 169.5,339.5C 166.49,341.354 163.824,343.687 161.5,346.5C 160.5,346.833 159.833,347.5 159.5,348.5C 157.66,350.168 155.66,351.668 153.5,353C 141.505,353.5 129.505,353.667 117.5,353.5C 116.837,292.069 116.17,230.736 115.5,169.5C 115.15,166.547 116.15,164.213 118.5,162.5C 119.167,161.167 120.167,160.167 121.5,159.5C 123.882,157.785 125.882,155.785 127.5,153.5C 132.882,150.729 137.882,147.395 142.5,143.5C 145.803,141.209 149.137,138.875 152.5,136.5C 153.193,135.482 153.859,134.482 154.5,133.5 Z"/></g>
<g><path style="opacity:1" fill="#fcfbfb" d="M 237.5,134.5 C 240.208,137.209 243.208,139.542 246.5,141.5C 248.36,142.939 250.027,144.605 251.5,146.5C 252.262,148.262 253.596,149.262 255.5,149.5C 256.911,151.914 258.911,153.581 261.5,154.5C 262.585,156.587 264.251,157.92 266.5,158.5C 270.177,162.174 274.177,165.507 278.5,168.5C 280.569,171.573 283.236,173.906 286.5,175.5C 286.833,175.5 287.167,175.5 287.5,175.5C 287.833,177.833 289.167,179.167 291.5,179.5C 295.847,183.845 300.514,187.845 305.5,191.5C 305.833,191.5 306.167,191.5 306.5,191.5C 308.167,193.5 309.833,195.5 311.5,197.5C 312.607,199.969 314.607,200.969 317.5,200.5C 316.844,178.141 317.511,156.141 319.5,134.5C 321.223,136.218 323.223,137.551 325.5,138.5C 328.228,142.048 331.561,144.715 335.5,146.5C 335.5,147.167 335.833,147.5 336.5,147.5C 337.585,149.587 339.251,150.92 341.5,151.5C 341.833,152.5 342.5,153.167 343.5,153.5C 345.878,155.878 348.545,157.878 351.5,159.5C 352.833,161.5 354.5,163.167 356.5,164.5C 356.667,203.835 356.5,243.168 356,282.5C 355.329,283.252 354.496,283.586 353.5,283.5C 348.514,279.845 343.847,275.845 339.5,271.5C 340.791,270.527 340.791,269.527 339.5,268.5C 338.088,267.194 336.421,266.36 334.5,266C 335.816,264.022 335.316,262.522 333,261.5C 332.692,262.308 332.192,262.975 331.5,263.5C 330.06,262.048 328.394,261.048 326.5,260.5C 326.167,260.5 325.833,260.5 325.5,260.5C 324.089,258.086 322.089,256.419 319.5,255.5C 316.129,252.129 312.463,249.129 308.5,246.5C 303.208,241.509 297.875,236.509 292.5,231.5C 291.415,229.413 289.749,228.08 287.5,227.5C 285.754,225.748 283.754,224.415 281.5,223.5C 280.167,221.833 278.833,220.167 277.5,218.5C 276.089,216.086 274.089,214.419 271.5,213.5C 269.041,210.913 267.374,207.913 266.5,204.5C 264.097,204.552 261.764,204.219 259.5,203.5C 258.833,203.167 258.167,202.833 257.5,202.5C 253.474,198.805 249.474,195.138 245.5,191.5C 245.167,191.5 244.833,191.5 244.5,191.5C 243.421,189.457 241.754,188.124 239.5,187.5C 238.751,184.905 237.084,183.738 234.5,184C 230.376,187.055 226.709,190.555 223.5,194.5C 220.911,195.419 218.911,197.086 217.5,199.5C 213.873,201.794 210.539,204.46 207.5,207.5C 202.514,211.155 197.847,215.155 193.5,219.5C 192.833,219.833 192.167,220.167 191.5,220.5C 190.176,202.931 190.176,185.264 191.5,167.5C 194.521,165.146 197.188,162.479 199.5,159.5C 199.833,159.5 200.167,159.5 200.5,159.5C 202.359,158.152 204.359,156.985 206.5,156C 207.252,155.329 207.586,154.496 207.5,153.5C 211.886,151.613 215.886,149.113 219.5,146C 220.252,145.329 220.586,144.496 220.5,143.5C 221.552,143.649 222.552,143.483 223.5,143C 226.616,139.282 230.282,136.282 234.5,134C 235.577,133.53 236.577,133.697 237.5,134.5 Z"/></g>
<g><path style="opacity:1" fill="#b43234" d="M 237.5,134.5 C 238.833,134.833 240.167,135.167 241.5,135.5C 243.86,136.865 245.527,138.865 246.5,141.5C 243.208,139.542 240.208,137.209 237.5,134.5 Z"/></g>
<g><path style="opacity:1" fill="#ad1019" d="M 319.5,133.5 C 319.167,133.5 318.833,133.5 318.5,133.5C 317.791,132.596 316.791,132.263 315.5,132.5C 315.831,154.673 315.497,176.673 314.5,198.5C 313.391,198.443 312.391,198.11 311.5,197.5C 309.833,195.5 308.167,193.5 306.5,191.5C 308.846,192.523 311.179,193.523 313.5,194.5C 314.828,175.015 314.828,155.515 313.5,136C 313.42,131.914 315.42,130.081 319.5,130.5C 319.5,131.5 319.5,132.5 319.5,133.5 Z"/></g>
<g><path style="opacity:1" fill="#b55551" d="M 251.5,146.5 C 252.833,146.5 254.167,146.5 255.5,146.5C 255.5,147.5 255.5,148.5 255.5,149.5C 253.596,149.262 252.262,148.262 251.5,146.5 Z"/></g>
<g><path style="opacity:1" fill="#bd4648" d="M 336.5,147.5 C 338.749,148.08 340.415,149.413 341.5,151.5C 339.251,150.92 337.585,149.587 336.5,147.5 Z"/></g>
<g><path style="opacity:1" fill="#bb2228" d="M 220.5,143.5 C 220.586,144.496 220.252,145.329 219.5,146C 215.886,149.113 211.886,151.613 207.5,153.5C 207.36,151.876 208.027,150.71 209.5,150C 209.167,149.667 208.833,149.333 208.5,149C 210.167,148.667 211.833,148.333 213.5,148C 215.688,146.222 218.021,144.722 220.5,143.5 Z"/></g>
<g><path style="opacity:1" fill="#cb5a62" d="M 255.5,149.5 C 258.089,150.419 260.089,152.086 261.5,154.5C 258.911,153.581 256.911,151.914 255.5,149.5 Z"/></g>
<g><path style="opacity:1" fill="#da9696" d="M 154.5,133.5 C 154.56,132.957 154.893,132.624 155.5,132.5C 155.835,187.506 156.835,242.173 158.5,296.5C 157.791,297.404 156.791,297.737 155.5,297.5C 155.832,242.664 155.499,187.997 154.5,133.5 Z"/></g>
<g><path style="opacity:1" fill="#a22529" d="M 159.5,292.5 C 161.279,291.33 162.279,289.664 162.5,287.5C 163.833,287.5 165.167,287.5 166.5,287.5C 163.833,290.5 161.167,293.5 158.5,296.5C 156.835,242.173 155.835,187.506 155.5,132.5C 154.893,132.624 154.56,132.957 154.5,133.5C 153.833,133.5 153.167,133.5 152.5,133.5C 153.552,131.744 155.219,131.077 157.5,131.5C 157.167,185.504 157.5,239.504 158.5,293.5C 159.107,293.376 159.44,293.043 159.5,292.5 Z"/></g>
<g><path style="opacity:1" fill="#bb0d14" d="M 159.5,292.5 C 159.44,293.043 159.107,293.376 158.5,293.5C 157.5,239.504 157.167,185.504 157.5,131.5C 155.219,131.077 153.552,131.744 152.5,133.5C 148.833,136.5 145.5,139.833 142.5,143.5C 137.882,147.395 132.882,150.729 127.5,153.5C 127.5,152.5 127.5,151.5 127.5,150.5C 129.5,150.167 131.5,149.833 133.5,149.5C 133.338,147.473 133.505,145.473 134,143.5C 135.333,144.833 136.667,144.833 138,143.5C 138.494,141.866 138.66,140.199 138.5,138.5C 140.857,138.663 143.19,138.497 145.5,138C 147.047,136.151 148.881,134.651 151,133.5C 151.483,132.552 151.649,131.552 151.5,130.5C 154.167,130.5 156.833,130.5 159.5,130.5C 158.177,184.64 158.177,238.64 159.5,292.5 Z"/></g>
<g><path style="opacity:1" fill="#f7c1be" d="M 152.5,133.5 C 153.167,133.5 153.833,133.5 154.5,133.5C 153.859,134.482 153.193,135.482 152.5,136.5C 149.137,138.875 145.803,141.209 142.5,143.5C 145.5,139.833 148.833,136.5 152.5,133.5 Z"/></g>
<g><path style="opacity:1" fill="#c6696d" d="M 318.5,133.5 C 316.839,155.151 315.839,177.151 315.5,199.5C 314.893,199.376 314.56,199.043 314.5,198.5C 315.497,176.673 315.831,154.673 315.5,132.5C 316.791,132.263 317.791,132.596 318.5,133.5 Z"/></g>
<g><path style="opacity:1" fill="#fde0e2" d="M 318.5,133.5 C 318.833,133.5 319.167,133.5 319.5,133.5C 319.5,133.833 319.5,134.167 319.5,134.5C 317.511,156.141 316.844,178.141 317.5,200.5C 314.607,200.969 312.607,199.969 311.5,197.5C 312.391,198.11 313.391,198.443 314.5,198.5C 314.56,199.043 314.893,199.376 315.5,199.5C 315.839,177.151 316.839,155.151 318.5,133.5 Z"/></g>
<g><path style="opacity:1" fill="#bd2027" d="M 207.5,153.5 C 207.586,154.496 207.252,155.329 206.5,156C 204.359,156.985 202.359,158.152 200.5,159.5C 200.373,154.627 202.706,152.627 207.5,153.5 Z"/></g>
<g><path style="opacity:1" fill="#be4f51" d="M 261.5,154.5 C 262.167,154.5 262.833,154.5 263.5,154.5C 264.5,155.833 265.5,157.167 266.5,158.5C 264.251,157.92 262.585,156.587 261.5,154.5 Z"/></g>
<g><path style="opacity:1" fill="#ae3e40" d="M 343.5,153.5 C 347.065,154.41 349.732,156.41 351.5,159.5C 348.545,157.878 345.878,155.878 343.5,153.5 Z"/></g>
<g><path style="opacity:1" fill="#be181b" d="M 263.5,154.5 C 266.041,155.649 268.541,155.649 271,154.5C 271.54,156.135 271.04,157.468 269.5,158.5C 270.515,159.681 271.681,160.681 273,161.5C 273.945,161.095 274.612,160.428 275,159.5C 275.986,161.778 276.82,164.111 277.5,166.5C 282.141,168.145 285.474,171.145 287.5,175.5C 287.167,175.5 286.833,175.5 286.5,175.5C 284.431,172.427 281.764,170.094 278.5,168.5C 274.177,165.507 270.177,162.174 266.5,158.5C 265.5,157.167 264.5,155.833 263.5,154.5 Z"/></g>
<g><path style="opacity:1" fill="#b71e2b" d="M 127.5,153.5 C 125.882,155.785 123.882,157.785 121.5,159.5C 121.303,155.194 123.303,153.194 127.5,153.5 Z"/></g>
<g><path style="opacity:1" fill="#b32b31" d="M 199.5,159.5 C 197.188,162.479 194.521,165.146 191.5,167.5C 190.833,167.5 190.167,167.5 189.5,167.5C 189.5,166.5 189.5,165.5 189.5,164.5C 193.018,163.024 196.351,161.357 199.5,159.5 Z"/></g>
<g><path style="opacity:1" fill="#b9514c" d="M 278.5,168.5 C 281.764,170.094 284.431,172.427 286.5,175.5C 283.236,173.906 280.569,171.573 278.5,168.5 Z"/></g>
<g><path style="opacity:1" fill="#df000f" d="M 178.5,166.5 C 179.75,166.577 180.583,167.244 181,168.5C 183.202,181.392 184.035,194.392 183.5,207.5C 182.167,207.5 180.833,207.5 179.5,207.5C 179.995,195.419 179.328,183.419 177.5,171.5C 177.592,169.742 177.925,168.076 178.5,166.5 Z"/></g>
<g><path style="opacity:1" fill="#b03331" d="M 287.5,175.5 C 288.5,175.5 289.5,175.5 290.5,175.5C 290.433,176.959 290.766,178.292 291.5,179.5C 289.167,179.167 287.833,177.833 287.5,175.5 Z"/></g>
<g><path style="opacity:1" fill="#b72427" d="M 291.5,179.5 C 293.435,180.15 295.435,180.483 297.5,180.5C 298.255,183.517 300.088,185.851 303,187.5C 303.333,186.833 303.667,186.167 304,185.5C 304.813,187.436 305.313,189.436 305.5,191.5C 300.514,187.845 295.847,183.845 291.5,179.5 Z"/></g>
<g><path style="opacity:1" fill="#fdd7d7" d="M 189.5,167.5 C 190.167,167.5 190.833,167.5 191.5,167.5C 190.176,185.264 190.176,202.931 191.5,220.5C 190.833,221.833 190.167,221.833 189.5,220.5C 189.5,202.833 189.5,185.167 189.5,167.5 Z"/></g>
<g><path style="opacity:1" fill="#b13436" d="M 239.5,187.5 C 237.598,186.489 235.598,186.322 233.5,187C 230.643,190.248 227.31,192.748 223.5,194.5C 226.709,190.555 230.376,187.055 234.5,184C 237.084,183.738 238.751,184.905 239.5,187.5 Z"/></g>
<g><path style="opacity:1" fill="#b02e35" d="M 239.5,187.5 C 241.754,188.124 243.421,189.457 244.5,191.5C 241.796,191.33 240.129,189.997 239.5,187.5 Z"/></g>
<g><path style="opacity:1" fill="#bb2b31" d="M 189.5,167.5 C 189.5,185.167 189.5,202.833 189.5,220.5C 188.883,220.389 188.383,220.056 188,219.5C 187.833,210.833 187.667,202.167 187.5,193.5C 187.502,184.473 188.169,175.807 189.5,167.5 Z"/></g>
<g><path style="opacity:1" fill="#af2e38" d="M 245.5,191.5 C 249.474,195.138 253.474,198.805 257.5,202.5C 253.798,200.976 250.464,198.81 247.5,196C 246.418,194.67 245.751,193.17 245.5,191.5 Z"/></g>
<g><path style="opacity:1" fill="#aa3337" d="M 217.5,199.5 C 215.023,203.318 211.689,205.985 207.5,207.5C 210.539,204.46 213.873,201.794 217.5,199.5 Z"/></g>
<g><path style="opacity:1" fill="#b1262a" d="M 261.5,205.5 C 264.564,208.57 267.897,211.237 271.5,213.5C 271.5,213.833 271.5,214.167 271.5,214.5C 268.5,213.167 265.5,211.833 262.5,210.5C 262.371,208.784 262.038,207.117 261.5,205.5 Z"/></g>
<g><path style="opacity:1" fill="#fcd6d8" d="M 259.5,203.5 C 261.764,204.219 264.097,204.552 266.5,204.5C 267.374,207.913 269.041,210.913 271.5,213.5C 267.897,211.237 264.564,208.57 261.5,205.5C 260.5,205.167 259.833,204.5 259.5,203.5 Z"/></g>
<g><path style="opacity:1" fill="#bc393f" d="M 207.5,207.5 C 208.126,211.375 206.459,213.209 202.5,213C 199.603,215.41 196.603,217.577 193.5,219.5C 197.847,215.155 202.514,211.155 207.5,207.5 Z"/></g>
<g><path style="opacity:1" fill="#f3aeb5" d="M 271.5,214.5 C 271.5,214.167 271.5,213.833 271.5,213.5C 274.089,214.419 276.089,216.086 277.5,218.5C 275.246,217.585 273.246,216.252 271.5,214.5 Z"/></g>
<g><path style="opacity:1" fill="#b01e2c" d="M 271.5,214.5 C 273.246,216.252 275.246,217.585 277.5,218.5C 278.833,220.167 280.167,221.833 281.5,223.5C 276.911,221.876 273.577,218.876 271.5,214.5 Z"/></g>
<g><path style="opacity:1" fill="#b41927" d="M 281.5,223.5 C 283.754,224.415 285.754,225.748 287.5,227.5C 288.5,228.833 289.5,230.167 290.5,231.5C 285.589,230.885 282.589,228.218 281.5,223.5 Z"/></g>
<g><path style="opacity:1" fill="#e7989b" d="M 287.5,227.5 C 289.749,228.08 291.415,229.413 292.5,231.5C 292.167,231.5 291.833,231.5 291.5,231.5C 291.167,231.5 290.833,231.5 290.5,231.5C 289.5,230.167 288.5,228.833 287.5,227.5 Z"/></g>
<g><path style="opacity:1" fill="#b44e4f" d="M 240.5,231.5 C 243.427,232.757 245.761,234.757 247.5,237.5C 244.573,236.243 242.239,234.243 240.5,231.5 Z"/></g>
<g><path style="opacity:1" fill="#b32426" d="M 236.5,227.5 C 235.448,227.351 234.448,227.517 233.5,228C 226.962,234.042 220.295,239.875 213.5,245.5C 213.185,243.774 213.019,242.107 213,240.5C 214.356,241.38 215.856,241.714 217.5,241.5C 217.304,237.359 219.304,235.025 223.5,234.5C 226.354,231.812 229.354,229.312 232.5,227C 234.066,226.235 235.399,226.402 236.5,227.5 Z"/></g>
<g><path style="opacity:1" fill="#d98d8a" d="M 118.5,162.5 C 116.15,164.213 115.15,166.547 115.5,169.5C 115.5,230.833 115.5,292.167 115.5,353.5C 114.335,290.668 114.168,227.668 115,164.5C 115.816,163.177 116.983,162.511 118.5,162.5 Z"/></g>
<g><path style="opacity:1" fill="#bd4a50" d="M 249.5,239.5 C 251.981,239.774 253.647,241.107 254.5,243.5C 252.251,242.92 250.585,241.587 249.5,239.5 Z"/></g>
<g><path style="opacity:1" fill="#b81d1e" d="M 291.5,231.5 C 291.833,231.5 292.167,231.5 292.5,231.5C 297.875,236.509 303.208,241.509 308.5,246.5C 306.266,245.296 303.933,244.13 301.5,243C 300.267,241.333 298.933,239.833 297.5,238.5C 295.777,238.608 294.11,238.108 292.5,237C 292.957,236.586 293.291,236.086 293.5,235.5C 292.37,234.378 291.703,233.044 291.5,231.5 Z"/></g>
<g><path style="opacity:1" fill="#b5272c" d="M 254.5,243.5 C 259.341,244.004 262.341,246.67 263.5,251.5C 259.895,249.528 256.895,246.861 254.5,243.5 Z"/></g>
<g><path style="opacity:1" fill="#ffece9" d="M 115.5,169.5 C 116.17,230.736 116.837,292.069 117.5,353.5C 116.833,353.5 116.167,353.5 115.5,353.5C 115.5,292.167 115.5,230.833 115.5,169.5 Z"/></g>
<g><path style="opacity:1" fill="#cb0c15" d="M 297.5,238.5 C 298.933,239.833 300.267,241.333 301.5,243C 303.933,244.13 306.266,245.296 308.5,246.5C 312.463,249.129 316.129,252.129 319.5,255.5C 317.5,255.5 315.5,255.5 313.5,255.5C 313.5,254.5 313.5,253.5 313.5,252.5C 306.903,254.908 303.569,252.575 303.5,245.5C 300.167,246.833 296.833,248.167 293.5,249.5C 295.612,246.247 296.945,242.58 297.5,238.5 Z"/></g>
<g><path style="opacity:1" fill="#b10918" d="M 351.5,159.5 C 354.243,160.326 356.743,161.659 359,163.5C 359.831,205.002 359.665,246.335 358.5,287.5C 358.832,246.33 358.499,205.33 357.5,164.5C 357.167,164.5 356.833,164.5 356.5,164.5C 354.5,163.167 352.833,161.5 351.5,159.5 Z"/></g>
<g><path style="opacity:1" fill="#b62733" d="M 207.5,250.5 C 206.167,252.5 204.5,254.167 202.5,255.5C 202.162,251.849 203.828,250.183 207.5,250.5 Z"/></g>
<g><path style="opacity:1" fill="#c41518" d="M 286.5,271.5 C 282.544,269.212 279.211,266.212 276.5,262.5C 275.415,260.413 273.749,259.08 271.5,258.5C 268.418,256.628 265.751,254.295 263.5,251.5C 267.158,252.32 269.491,250.987 270.5,247.5C 271.712,249.836 271.379,252.003 269.5,254C 270.022,254.95 270.689,255.784 271.5,256.5C 275.393,256.047 279.393,256.047 283.5,256.5C 289.3,265.678 288.3,266.511 280.5,259C 279.056,258.219 277.723,258.386 276.5,259.5C 278.554,263.722 281.721,266.722 286,268.5C 286.483,269.448 286.649,270.448 286.5,271.5 Z"/></g>
<g><path style="opacity:1" fill="#bc4f4e" d="M 271.5,258.5 C 273.749,259.08 275.415,260.413 276.5,262.5C 274.251,261.92 272.585,260.587 271.5,258.5 Z"/></g>
<g><path style="opacity:1" fill="#c0292f" d="M 319.5,255.5 C 322.089,256.419 324.089,258.086 325.5,260.5C 323.5,260.167 321.5,259.833 319.5,259.5C 319.5,258.167 319.5,256.833 319.5,255.5 Z"/></g>
<g><path style="opacity:1" fill="#b12722" d="M 325.5,260.5 C 325.833,260.5 326.167,260.5 326.5,260.5C 330.5,263.833 334.167,267.5 337.5,271.5C 335.821,271.108 334.154,270.608 332.5,270C 329.924,266.937 327.591,263.771 325.5,260.5 Z"/></g>
<g><path style="opacity:1" fill="#f9d7d5" d="M 326.5,260.5 C 328.394,261.048 330.06,262.048 331.5,263.5C 332.192,262.975 332.692,262.308 333,261.5C 335.316,262.522 335.816,264.022 334.5,266C 336.421,266.36 338.088,267.194 339.5,268.5C 340.791,269.527 340.791,270.527 339.5,271.5C 339.167,271.5 338.833,271.5 338.5,271.5C 338.167,271.5 337.833,271.5 337.5,271.5C 334.167,267.5 330.5,263.833 326.5,260.5 Z"/></g>
<g><path style="opacity:1" fill="#f9d5d2" d="M 198.5,260.5 C 197.999,263.155 196.666,265.322 194.5,267C 191.586,268.784 188.586,270.284 185.5,271.5C 187.194,269.139 189.194,267.139 191.5,265.5C 193.55,263.453 195.883,261.786 198.5,260.5 Z"/></g>
<g><path style="opacity:1" fill="#fec3ce" d="M 356.5,164.5 C 356.833,164.5 357.167,164.5 357.5,164.5C 357.833,205.172 357.5,245.839 356.5,286.5C 355.482,285.807 354.482,285.141 353.5,284.5C 353.5,284.167 353.5,283.833 353.5,283.5C 354.496,283.586 355.329,283.252 356,282.5C 356.5,243.168 356.667,203.835 356.5,164.5 Z"/></g>
<g><path style="opacity:1" fill="#b53847" d="M 357.5,164.5 C 358.499,205.33 358.832,246.33 358.5,287.5C 356.833,287.5 355.167,287.5 353.5,287.5C 353.5,286.5 353.5,285.5 353.5,284.5C 354.482,285.141 355.482,285.807 356.5,286.5C 357.5,245.839 357.833,205.172 357.5,164.5 Z"/></g>
<g><path style="opacity:1" fill="#aa171f" d="M 191.5,265.5 C 189.194,267.139 187.194,269.139 185.5,271.5C 185.167,271.5 184.833,271.5 184.5,271.5C 185.16,267.488 187.494,265.488 191.5,265.5 Z"/></g>
<g><path style="opacity:1" fill="#b4262e" d="M 184.5,271.5 C 182.833,273.833 180.833,275.833 178.5,277.5C 178.735,273.676 180.735,271.676 184.5,271.5 Z"/></g>
<g><path style="opacity:1" fill="#bf494b" d="M 292.5,276.5 C 295.764,278.094 298.431,280.427 300.5,283.5C 297.236,281.906 294.569,279.573 292.5,276.5 Z"/></g>
<g><path style="opacity:1" fill="#af4444" d="M 231.5,281.5 C 230.5,284.5 228.5,286.5 225.5,287.5C 227.167,285.167 229.167,283.167 231.5,281.5 Z"/></g>
<g><path style="opacity:1" fill="#ae2527" d="M 245.5,287.5 C 241.598,286.599 238.931,284.266 237.5,280.5C 235.435,280.517 233.435,280.85 231.5,281.5C 232.406,280.035 233.739,279.035 235.5,278.5C 238.828,281.494 242.161,284.494 245.5,287.5 Z"/></g>
<g><path style="opacity:1" fill="#b31f22" d="M 338.5,271.5 C 338.833,271.5 339.167,271.5 339.5,271.5C 343.847,275.845 348.514,279.845 353.5,283.5C 353.5,283.833 353.5,284.167 353.5,284.5C 351.5,284.5 349.5,284.5 347.5,284.5C 346.773,279.758 344.107,276.425 339.5,274.5C 338.614,273.675 338.281,272.675 338.5,271.5 Z"/></g>
<g><path style="opacity:1" fill="#a7382e" d="M 170.5,284.5 C 169.738,286.262 168.404,287.262 166.5,287.5C 166.694,285.088 168.027,284.088 170.5,284.5 Z"/></g>
<g><path style="opacity:1" fill="#c35252" d="M 223.5,289.5 C 222.215,291.452 220.549,293.118 218.5,294.5C 219.144,291.856 220.811,290.189 223.5,289.5 Z"/></g>
<g><path style="opacity:1" fill="#bc5056" d="M 308.5,290.5 C 311.089,291.419 313.089,293.086 314.5,295.5C 311.911,294.581 309.911,292.914 308.5,290.5 Z"/></g>
<g><path style="opacity:1" fill="#9d3130" d="M 314.5,295.5 C 316.795,296.136 318.461,297.469 319.5,299.5C 317.251,298.92 315.585,297.587 314.5,295.5 Z"/></g>
<g><path style="opacity:1" fill="#ba2a2e" d="M 245.5,287.5 C 253.221,293.702 260.554,300.368 267.5,307.5C 265.833,307.5 264.167,307.5 262.5,307.5C 262.762,306.022 262.429,304.689 261.5,303.5C 257.107,299.452 252.44,295.618 247.5,292C 245.963,290.89 245.297,289.39 245.5,287.5 Z"/></g>
<g><path style="opacity:1" fill="#ac3233" d="M 218.5,294.5 C 215.769,298.234 212.436,301.234 208.5,303.5C 211.231,299.766 214.564,296.766 218.5,294.5 Z"/></g>
<g><path style="opacity:1" fill="#a13331" d="M 327.5,306.5 C 331.516,307.903 334.183,310.57 335.5,314.5C 332.5,312.167 329.833,309.5 327.5,306.5 Z"/></g>
<g><path style="opacity:1" fill="#ba3335" d="M 207.5,304.5 C 203.815,308.684 199.982,312.684 196,316.5C 195.517,317.448 195.351,318.448 195.5,319.5C 194.167,319.5 192.833,319.5 191.5,319.5C 191.511,317.983 192.177,316.816 193.5,316C 198.06,311.931 202.726,308.098 207.5,304.5 Z"/></g>
<g><path style="opacity:1" fill="#bf252b" d="M 335.5,314.5 C 337.527,314.338 339.527,314.505 341.5,315C 344.286,320.288 348.452,323.788 354,325.5C 358.435,334.46 359.601,343.793 357.5,353.5C 357.825,346.313 357.491,339.313 356.5,332.5C 349.193,326.707 342.193,320.707 335.5,314.5 Z"/></g>
<g><path style="opacity:1" fill="#ba1a20" d="M 267.5,307.5 C 281.104,320.429 295.104,333.096 309.5,345.5C 307.5,345.167 305.5,344.833 303.5,344.5C 303.5,343.5 303.5,342.5 303.5,341.5C 302.448,341.649 301.448,341.483 300.5,341C 295.261,333.599 288.595,327.765 280.5,323.5C 280.261,320.304 278.594,318.471 275.5,318C 274.257,316.846 273.257,315.512 272.5,314C 268.558,313.624 266.891,311.458 267.5,307.5 Z"/></g>
<g><path style="opacity:1" fill="#c31a1c" d="M 191.5,319.5 C 191.374,322.468 189.874,324.468 187,325.5C 186.517,326.448 186.351,327.448 186.5,328.5C 188.167,328.5 189.833,328.5 191.5,328.5C 191.5,329.5 191.5,330.5 191.5,331.5C 190.07,331.421 188.736,331.754 187.5,332.5C 187.002,331.397 186.669,330.397 186.5,329.5C 182.554,330.838 178.887,332.504 175.5,334.5C 176.543,331.944 178.21,329.777 180.5,328C 184.061,324.927 187.728,322.094 191.5,319.5 Z"/></g>
<g><path style="opacity:1" fill="#b6393d" d="M 169.5,339.5 C 169.489,341.017 168.823,342.184 167.5,343C 165.595,344.421 163.595,345.588 161.5,346.5C 163.824,343.687 166.49,341.354 169.5,339.5 Z"/></g>
<g><path style="opacity:1" fill="#e78693" d="M 356.5,332.5 C 357.491,339.313 357.825,346.313 357.5,353.5C 356.791,354.404 355.791,354.737 354.5,354.5C 342.322,354.828 330.322,354.495 318.5,353.5C 331.167,353.5 343.833,353.5 356.5,353.5C 356.5,346.5 356.5,339.5 356.5,332.5 Z"/></g>
<g><path style="opacity:1" fill="#bd363b" d="M 159.5,348.5 C 159.762,349.978 159.429,351.311 158.5,352.5C 156.998,353.083 155.665,353.916 154.5,355C 141.833,355.667 129.167,355.667 116.5,355C 115.944,354.617 115.611,354.117 115.5,353.5C 116.167,353.5 116.833,353.5 117.5,353.5C 129.505,353.667 141.505,353.5 153.5,353C 155.66,351.668 157.66,350.168 159.5,348.5 Z"/></g>
<g><path style="opacity:1" fill="#ab0f1d" d="M 309.5,345.5 C 312.5,348.167 315.5,350.833 318.5,353.5C 330.322,354.495 342.322,354.828 354.5,354.5C 342.34,355.66 330.007,355.827 317.5,355C 313.876,352.551 311.21,349.384 309.5,345.5 Z"/></g>
<g><path style="opacity:1" fill="#e17b70" d="M 473.5,367.5 C 473.5,368.833 473.5,370.167 473.5,371.5C 472.833,371.5 472.167,371.5 471.5,371.5C 471.157,369.517 471.824,368.183 473.5,367.5 Z"/></g>
<g><path style="opacity:1" fill="#f7bdba" d="M 471.5,371.5 C 472.167,371.5 472.833,371.5 473.5,371.5C 473.5,373.167 473.5,374.833 473.5,376.5C 472.061,379.41 470.727,382.41 469.5,385.5C 470.037,380.814 470.704,376.147 471.5,371.5 Z"/></g>
<g><path style="opacity:1" fill="#fdadb6" d="M -0.5,373.5 C 1.17649,374.183 1.84316,375.517 1.5,377.5C 0.833333,377.5 0.166667,377.5 -0.5,377.5C -0.5,376.167 -0.5,374.833 -0.5,373.5 Z"/></g>
<g><path style="opacity:1" fill="#e19b95" d="M 2.5,383.5 C 2.83333,383.5 3.16667,383.5 3.5,383.5C 4.37386,386.789 5.04053,390.123 5.5,393.5C 3.7234,390.495 2.7234,387.162 2.5,383.5 Z"/></g>
<g><path style="opacity:1" fill="#af211f" d="M 3.5,383.5 C 7.62277,393.424 11.6228,403.424 15.5,413.5C 13.6863,411.236 11.853,408.903 10,406.5C 9.05717,401.953 7.55717,397.62 5.5,393.5C 5.04053,390.123 4.37386,386.789 3.5,383.5 Z"/></g>
<g><path style="opacity:1" fill="#f3fcfb" d="M 473.5,376.5 C 473.5,383.167 473.5,389.833 473.5,396.5C 471.121,395.433 470.121,396.433 470.5,399.5C 469.5,399.5 468.5,399.5 467.5,399.5C 468.037,394.814 468.704,390.147 469.5,385.5C 470.727,382.41 472.061,379.41 473.5,376.5 Z"/></g>
<g><path style="opacity:1" fill="#b42726" d="M 467.5,389.5 C 467.073,392.376 466.406,395.209 465.5,398C 465.164,399.03 464.497,399.53 463.5,399.5C 463.343,398.127 463.51,396.793 464,395.5C 465.082,393.382 466.249,391.382 467.5,389.5 Z"/></g>
<g><path style="opacity:1" fill="#fbeaed" d="M 469.5,385.5 C 468.704,390.147 468.037,394.814 467.5,399.5C 468.5,399.5 469.5,399.5 470.5,399.5C 470.121,396.433 471.121,395.433 473.5,396.5C 473.5,397.5 473.5,398.5 473.5,399.5C 471.895,402.607 469.728,405.274 467,407.5C 466.581,406.328 465.915,405.328 465,404.5C 464.241,406.063 463.074,407.063 461.5,407.5C 461.893,405.716 462.559,404.05 463.5,402.5C 463.5,401.5 463.5,400.5 463.5,399.5C 464.497,399.53 465.164,399.03 465.5,398C 466.406,395.209 467.073,392.376 467.5,389.5C 467.5,389.167 467.5,388.833 467.5,388.5C 468.167,387.5 468.833,386.5 469.5,385.5 Z"/></g>
<g><path style="opacity:1" fill="#ad1e25" d="M 463.5,402.5 C 462.559,404.05 461.893,405.716 461.5,407.5C 459.833,410.167 458.167,412.833 456.5,415.5C 458.09,411.301 459.423,406.967 460.5,402.5C 461.5,402.5 462.5,402.5 463.5,402.5 Z"/></g>
<g><path style="opacity:1" fill="#fcfbfb" d="M 473.5,399.5 C 473.5,424.167 473.5,448.833 473.5,473.5C 439.833,473.5 406.167,473.5 372.5,473.5C 372.5,472.833 372.5,472.167 372.5,471.5C 376.119,470.756 379.785,470.423 383.5,470.5C 386.187,470.664 388.854,470.497 391.5,470C 393.579,468.36 395.912,467.194 398.5,466.5C 399.427,468.946 401.094,469.779 403.5,469C 403.167,468.667 402.833,468.333 402.5,468C 404.099,466.934 405.099,465.434 405.5,463.5C 410.019,463.611 413.019,461.611 414.5,457.5C 415.167,457.5 415.5,457.167 415.5,456.5C 422.799,453.03 429.133,448.363 434.5,442.5C 443.932,435.168 451.265,426.168 456.5,415.5C 458.167,412.833 459.833,410.167 461.5,407.5C 463.074,407.063 464.241,406.063 465,404.5C 465.915,405.328 466.581,406.328 467,407.5C 469.728,405.274 471.895,402.607 473.5,399.5 Z"/></g>
<g><path style="opacity:1" fill="#fcfafa" d="M -0.5,377.5 C 0.166667,377.5 0.833333,377.5 1.5,377.5C 2.34141,379.379 2.67474,381.379 2.5,383.5C 2.7234,387.162 3.7234,390.495 5.5,393.5C 7.55717,397.62 9.05717,401.953 10,406.5C 11.853,408.903 13.6863,411.236 15.5,413.5C 15.3284,414.492 15.6618,415.158 16.5,415.5C 18.0875,419.683 20.4208,423.35 23.5,426.5C 28.9219,435.255 35.9219,442.255 44.5,447.5C 48.5938,452.057 53.5938,455.39 59.5,457.5C 59.5,457.833 59.5,458.167 59.5,458.5C 63.1771,460.013 66.8438,461.679 70.5,463.5C 70.8333,463.5 71.1667,463.5 71.5,463.5C 73.9884,465.128 76.6551,466.462 79.5,467.5C 83.2976,468.868 87.2976,469.868 91.5,470.5C 93.5648,470.517 95.5648,470.85 97.5,471.5C 98.1667,472.167 98.8333,472.833 99.5,473.5C 66.1667,473.5 32.8333,473.5 -0.5,473.5C -0.5,441.5 -0.5,409.5 -0.5,377.5 Z"/></g>
<g><path style="opacity:1" fill="#a62220" d="M 16.5,415.5 C 17.3764,415.369 18.0431,415.702 18.5,416.5C 20.2255,419.867 21.8921,423.2 23.5,426.5C 20.4208,423.35 18.0875,419.683 16.5,415.5 Z"/></g>
<g><path style="opacity:1" fill="#be1f20" d="M 456.5,415.5 C 451.265,426.168 443.932,435.168 434.5,442.5C 434.5,440.833 434.5,439.167 434.5,437.5C 435.833,437.5 437.167,437.5 438.5,437.5C 438.338,435.473 438.505,433.473 439,431.5C 439.689,432.357 440.522,433.023 441.5,433.5C 442.474,431.257 442.808,428.924 442.5,426.5C 444.96,426.301 447.293,425.635 449.5,424.5C 451.149,420.818 453.482,417.818 456.5,415.5 Z"/></g>
<g><path style="opacity:1" fill="#b91e1b" d="M 434.5,442.5 C 429.133,448.363 422.799,453.03 415.5,456.5C 416.763,454.57 418.43,452.903 420.5,451.5C 420.291,450.914 419.957,450.414 419.5,450C 421.556,449.689 423.556,449.189 425.5,448.5C 426.342,443.331 429.342,441.331 434.5,442.5 Z"/></g>
<g><path style="opacity:1" fill="#ae2126" d="M 44.5,447.5 C 49.3141,449.74 53.9808,452.24 58.5,455C 59.2524,455.671 59.5858,456.504 59.5,457.5C 53.5938,455.39 48.5938,452.057 44.5,447.5 Z"/></g>
<g><path style="opacity:1" fill="#af1f22" d="M 415.5,456.5 C 415.5,457.167 415.167,457.5 414.5,457.5C 410.286,459.774 405.953,461.774 401.5,463.5C 401.414,462.504 401.748,461.671 402.5,461C 406.904,459.453 411.237,457.953 415.5,456.5 Z"/></g>
<g><path style="opacity:1" fill="#b7292e" d="M 59.5,458.5 C 62.5219,458.804 65.5219,459.304 68.5,460C 69.8228,460.816 70.4894,461.983 70.5,463.5C 66.8438,461.679 63.1771,460.013 59.5,458.5 Z"/></g>
<g><path style="opacity:1" fill="#f9e2e5" d="M 414.5,457.5 C 413.019,461.611 410.019,463.611 405.5,463.5C 405.099,465.434 404.099,466.934 402.5,468C 402.833,468.333 403.167,468.667 403.5,469C 401.094,469.779 399.427,468.946 398.5,466.5C 395.912,467.194 393.579,468.36 391.5,470C 388.854,470.497 386.187,470.664 383.5,470.5C 383.5,470.167 383.5,469.833 383.5,469.5C 386.829,469.785 389.829,469.118 392.5,467.5C 394.987,466.677 397.321,465.677 399.5,464.5C 399.842,463.662 400.508,463.328 401.5,463.5C 405.953,461.774 410.286,459.774 414.5,457.5 Z"/></g>
<g><path style="opacity:1" fill="#c85153" d="M 79.5,467.5 C 84.0319,466.886 88.0319,467.886 91.5,470.5C 87.2976,469.868 83.2976,468.868 79.5,467.5 Z"/></g>
<g><path style="opacity:1" fill="#bf1820" d="M 399.5,464.5 C 397.321,465.677 394.987,466.677 392.5,467.5C 389.273,467.676 386.273,468.343 383.5,469.5C 383.5,469.833 383.5,470.167 383.5,470.5C 379.785,470.423 376.119,470.756 372.5,471.5C 370.833,471.5 369.167,471.5 367.5,471.5C 367.5,471.167 367.5,470.833 367.5,470.5C 377.894,467.268 388.56,465.268 399.5,464.5 Z"/></g>
<g><path style="opacity:1" fill="#dc7b8c" d="M 392.5,467.5 C 389.829,469.118 386.829,469.785 383.5,469.5C 386.273,468.343 389.273,467.676 392.5,467.5 Z"/></g>
<g><path style="opacity:1" fill="#cc0b18" d="M 107.5,470.5 C 194.167,470.5 280.833,470.5 367.5,470.5C 367.5,470.833 367.5,471.167 367.5,471.5C 282.195,472.659 196.861,472.825 111.5,472C 109.942,471.79 108.609,471.29 107.5,470.5 Z"/></g>
<g><path style="opacity:1" fill="#ef8e84" d="M 97.5,471.5 C 100.01,471.054 102.01,471.72 103.5,473.5C 102.167,473.5 100.833,473.5 99.5,473.5C 98.8333,472.833 98.1667,472.167 97.5,471.5 Z"/></g>
<g><path style="opacity:1" fill="#c4141c" d="M 71.5,463.5 C 75.8461,463.334 80.1794,463.501 84.5,464C 83.8333,464.333 83.1667,464.667 82.5,465C 86.1955,466.412 90.0289,467.578 94,468.5C 94.9503,467.978 95.7836,467.311 96.5,466.5C 97.2298,467.934 98.2298,469.1 99.5,470C 102.146,470.497 104.813,470.664 107.5,470.5C 108.609,471.29 109.942,471.79 111.5,472C 196.861,472.825 282.195,472.659 367.5,471.5C 367.5,472.167 367.5,472.833 367.5,473.5C 279.5,473.5 191.5,473.5 103.5,473.5C 102.01,471.72 100.01,471.054 97.5,471.5C 95.5648,470.85 93.5648,470.517 91.5,470.5C 88.0319,467.886 84.0319,466.886 79.5,467.5C 76.6551,466.462 73.9884,465.128 71.5,463.5 Z"/></g>
<g><path style="opacity:1" fill="#f2807b" d="M 367.5,471.5 C 369.167,471.5 370.833,471.5 372.5,471.5C 372.5,472.167 372.5,472.833 372.5,473.5C 370.833,473.5 369.167,473.5 367.5,473.5C 367.5,472.833 367.5,472.167 367.5,471.5 Z"/></g>
</svg>
