<?xml version="1.0" standalone="no"?>
<!DOCTYPE svg PUBLIC "-//W3C//DTD SVG 20010904//EN"
 "http://www.w3.org/TR/2001/REC-SVG-20010904/DTD/svg10.dtd">
<svg version="1.0" xmlns="http://www.w3.org/2000/svg"
 width="474.000000pt" height="474.000000pt" viewBox="0 0 474.000000 474.000000"
 preserveAspectRatio="xMidYMid meet">

<g transform="translate(0.000000,474.000000) scale(0.100000,-0.100000)"
fill="#000000" stroke="none">
<path d="M1000 4731 c0 -5 -24 -12 -52 -15 -74 -10 -251 -70 -328 -113 -199
-109 -367 -274 -477 -470 -45 -81 -109 -264 -119 -339 -3 -30 -10 -54 -15 -54
-5 0 -9 -580 -9 -1365 0 -903 3 -1365 10 -1365 6 0 10 -12 10 -27 0 -49 48
-208 89 -298 83 -180 208 -334 366 -452 136 -102 360 -194 508 -210 31 -3 57
-10 57 -14 0 -5 597 -9 1330 -9 732 0 1330 4 1330 8 0 4 35 13 79 20 448 71
830 439 927 895 7 38 14 82 14 98 0 16 5 29 10 29 7 0 10 448 10 1325 0 730
-4 1325 -9 1325 -4 0 -11 26 -14 58 -9 82 -52 224 -97 317 -117 243 -294 422
-535 540 -106 52 -270 105 -327 105 -16 0 -28 5 -28 10 0 7 -462 10 -1365 10
-769 0 -1365 -4 -1365 -9z m570 -2142 c0 -451 4 -819 8 -817 4 2 178 156 385
343 208 187 382 341 387 343 5 2 96 -72 202 -164 106 -92 220 -190 253 -218
32 -28 100 -87 150 -131 49 -44 137 -121 195 -170 58 -50 161 -139 230 -200
69 -60 142 -124 163 -141 l38 -31 -3 -104 -3 -104 -187 -3 -188 -2 -172 157
c-95 87 -282 258 -416 380 -133 123 -246 223 -250 223 -4 0 -23 -15 -42 -33
-19 -17 -123 -113 -230 -212 -107 -99 -221 -205 -254 -235 -32 -30 -64 -60
-70 -65 -6 -6 -62 -56 -123 -113 l-113 -102 -187 2 -188 3 -3 942 -2 943 27
24 c82 71 376 306 384 306 5 0 9 -343 9 -821z m1684 763 c39 -32 128 -104 199
-161 l127 -103 0 -610 c0 -370 -4 -608 -9 -606 -9 3 -159 130 -810 687 -119
102 -257 220 -307 263 l-92 78 -213 -182 c-118 -99 -222 -188 -231 -196 -17
-14 -18 -1 -18 259 l0 274 103 76 c56 42 159 121 230 174 l127 98 49 -39 c56
-45 696 -579 725 -606 37 -34 33 -70 35 350 1 166 4 302 8 302 3 0 38 -26 77
-58z"/>
</g>
</svg>
